File size                        : 4.35 GiB
Frame rate                       : 23.976 fps
Bit rate                         : 4 600 Kbps
Duration                         : 2h 12mn
Width                            : 986 pixels
Height                           : 720 pixels
Display aspect ratio             : 4:3
Frame rate                       : 23.976 fps
Bit depth                        : 8 bits
Stream size                      : 3.43 GiB (79%)
Audio
Language                         : English
Stream size                      : 91.1 MiB (2%)
Channel(s)                     : 1 channel
Channel positions           : Front: C
Subtitles                         :  English, English(SHD), French, Deutsch, Deutsch (SHD), Norway, Portuguese, Romanian, Spanish, Spanish(Latin American)



Won Oscar. Another 1 win & 7 nominations

 
http://shareimage.ro/images/h2my4ed9uce7dueocs9y.jpg 
http://shareimage.ro/images/gf9k187g91m2v1rjme9.jpg 
http://shareimage.ro/images/48cdsfcl1qcy9i0m4dv.jpg 
http://shareimage.ro/images/7mkkixyea2ky9txn2i.jpg 
http://shareimage.ro/images/3v0zhyvl2qml006bro3b.jpg 
http://shareimage.ro/images/1bcoqkmxf1v87ev5qetz.jpg


